Senha Pass: Zz@gor
-------------PORTUGUES--------------

Sinopse: "uma mulher inteligente e com muitos poderes, que fica transtornada ao descobrir o desvio de comportamento de seu marido Carlos Solis (Celso Santos), homem ambicioso que busca aventuras com outras mulheres para se libertar da monotonia conjugal. Preocupado em manter seu casamento de interesse, Carlos tenta envolver Rafaela em inúmeras fantasias sexuais, não obtendo sucesso. Inconformada com as atitudes do marido, Rafaela se envolve com Jean Rey (Valter Pagliosa, que foi demitido pelo governo do Estado do Paraná pela participação no Filme), médico conceituado, por quem se apaixona e vive um lindo romance, encontrando nele o verdadeiro amor de sua vida, sua outra metade.
O filme busca despertar a libido a partir de detalhes de erotismo.

O Filme foi distribuído somente em Cascavel no Paraná, e estava à venda com os produtores Juan Natal e Andoza Ferreira.


--------------ESPANHOL-----------------

Sinopsis: ". Una mujer inteligente, con muchos poderes, que está molesto para descubrir la conducta desviada de su esposo Carlos Solís (Celso Santos), hombre ambicioso que busca aventuras con otras mujeres para liberarse de la monotonía del matrimonio preocupado por mantener su matrimonio de interés, Carlos trata de participar en numerosas sexual Rafaela fantasías, no tener éxito. satisfecho con la actitud de su marido, Rafaela se involucra con Jean Rey (Pagliosa Vernon, quien fue despedido por el gobierno del estado de Paraná para la participación en la película), un médico de renombre , con quien se enamora y que viven un bello romance, encontrando en ella el verdadero amor de su vida, su otra mitad.
La película trata de despertar la libido de los detalles de erotismo.

La película fue distribuida sólo en Cascavel, en Paraná, y estaba a la venta con los productores Andoza Navidad y Juan Ferreira.

------------------INGLES------------------------

Synopsis: "an intelligent woman with many powers, which is upset to discover the deviant behavior of her husband Carlos Solis (Celso Santos), ambitious man who seeks adventures with other women to break free from the monotony of marriage. Worried about keeping your marriage of interest, Carlos tries to engage in numerous sexual fantasies Rafaela, not succeeding. dissatisfied with the attitudes of her husband, Rafaela gets involved with Jean Rey (Pagliosa Vernon, who was fired by the state government of Parana for participation in the film), renowned physician , with whom he falls in love and living a beautiful romance, finding in it the true love of his life, his other half.
The film seeks to arouse the libido from the details of eroticism.

The film was distributed only in Cascavel in Paraná, and was for sale with producers Andoza Christmas and Juan Ferreira.


Format : Matroska
Format version : Version 2
File size : 456 MiB
Duration : 1h 5mn
Overall bit rate : 974 Kbps
Encoded date : UTC 2013-06-06 09:49:23
Writing application : mkvmerge v5.8.0 ('No Sleep / Pillow') built on Sep 2 2012 15:37:04
Writing library : libebml v1.2.3 + libmatroska v1.3.0

Video
ID : 1
Format : AVC
Format/Info : Advanced Video Codec
Format profile : High@L4.1
Format settings, CABAC : Yes
Format settings, ReFrames : 4 frames
Muxing mode : Header stripping
Codec ID : V_MPEG4/ISO/AVC
Duration : 1h 5mn
Bit rate : 763 Kbps
Width : 704 pixels
Height : 304 pixels
Display aspect ratio : 2.35:1
Frame rate mode : Constant
Frame rate : 29.970 fps
Color space : YUV
Chroma subsampling : 4:2:0
Bit depth : 8 bits
Scan type : Progressive
Bits/(Pixel*Frame) : 0.119
Stream size : 357 MiB (78%)
Title : A Outra Metade - O Filme do Ponta Grossa Paraná Brazil ( by fantasma )
Writing library : x264 core 130 r2273 b3065e6
Encoding settings : cabac=1 / ref=3 / deblock=1:0:0 / analyse=0x3:0x113 / me=hex / subme=7 / psy=1 / psy_rd=1.00:0.00 / mixed_ref=1 / me_range=16 / chroma_me=1 / trellis=1 / 8x8dct=1 / cqm=0 / deadzone=21,11 / fast_pskip=1 / chroma_qp_offset=-2 / threads=3 / lookahead_threads=1 / sliced_threads=0 / nr=0 / decimate=1 / interlaced=0 / bluray_compat=0 / constrained_intra=0 / bframes=3 / b_pyramid=2 / b_adapt=1 / b_bias=0 / direct=1 / weightb=1 / open_gop=0 / weightp=2 / keyint=300 / keyint_min=29 / scenecut=40 / intra_refresh=0 / rc_lookahead=40 / rc=crf / mbtree=1 / crf=23.0 / qcomp=0.60 / qpmin=0 / qpmax=69 / qpstep=4 / vbv_maxrate=24000 / vbv_bufsize=24000 / crf_max=0.0 / nal_hrd=none / ip_ratio=1.40 / aq=1:1.00
Language : Portuguese
Default : Yes
Forced : No

Audio
ID : 2
Format : AC-3
Format/Info : Audio Coding 3
Mode extension : CM (complete main)
Format settings, Endianness : Big
Muxing mode : Header stripping
Codec ID : A_AC3
Duration : 1h 5mn
Bit rate mode : Constant
Bit rate : 192 Kbps
Channel(s) : 2 channels
Channel positions : Front: L R
Sampling rate : 48.0 KHz
Bit depth : 16 bits
Compression mode : Lossy
Delay relative to video : 6ms
Stream size : 89.9 MiB (20%)
Title : por
Language : Portuguese
Default : Yes
Forced : No

Text
ID : 3
Format : UTF-8
Codec ID : S_TEXT/UTF8
Codec ID/Info : UTF-8 Plain Text
Title : Credito
Language : Portuguese
Default : Yes
Forced : No

Menu
00:00:00.000 : en:Chapter 01
00:04:01.267 : en:Chapter 02
00:05:00.701 : en:Chapter 03
00:07:11.101 : en:Chapter 04
00:11:05.969 : en:Chapter 05
00:14:59.136 : en:Chapter 06
00:15:31.169 : en:Chapter 07
00:17:02.770 : en:Chapter 08
00:19:55.170 : en:Chapter 09
00:23:31.470 : en:Chapter 10
00:27:53.537 : en:Chapter 11
00:33:07.737 : en:Chapter 12
00:38:54.538 : en:Chapter 13
00:40:19.038 : en:Chapter 14
00:43:26.572 : en:Chapter 15
00:46:43.406 : en:Chapter 16
00:49:13.073 : en:Chapter 17
00:52:28.640 : en:Chapter 18
00:55:32.541 : en:Chapter 19
00:57:40.075 : en:Chapter 20
00:59:23.542 : en:Chapter 21
01:01:52.542 : en:Chapter 22
